<?xml version="1.0" standalone="no"?>
<!DOCTYPE svg PUBLIC "-//W3C//DTD SVG 20010904//EN"
 "http://www.w3.org/TR/2001/REC-SVG-20010904/DTD/svg10.dtd">
<svg version="1.0" xmlns="http://www.w3.org/2000/svg"
 width="395.000000pt" height="180.000000pt" viewBox="0 0 395.000000 180.000000"
 preserveAspectRatio="xMidYMid meet">

<g transform="translate(0.000000,180.000000) scale(0.100000,-0.100000)"
fill="#000000" stroke="none">
<path d="M2850 1397 c-131 -45 -227 -132 -285 -260 -98 -213 -21 -457 188
-599 156 -106 364 -105 526 3 97 65 157 145 167 227 l5 37 -21 -40 c-41 -79
-50 -70 -25 25 8 30 15 80 14 110 l0 55 -26 -67 c-35 -93 -139 -205 -232 -251
-58 -28 -75 -32 -146 -31 -68 0 -90 5 -145 31 -81 38 -135 90 -170 165 -52
109 -48 223 10 339 34 66 84 113 160 148 45 21 69 25 135 25 117 -1 182 -29
265 -113 36 -36 55 -52 43 -35 -39 55 -104 106 -180 140 -89 41 -175 46 -266
15 -65 -21 -65 -8 -1 21 66 29 202 38 267 18 78 -24 140 -64 200 -130 33 -35
53 -51 49 -38 -9 35 -109 134 -169 166 -121 64 -250 78 -363 39z"/>
<path d="M430 1250 c0 -5 -6 -10 -14 -10 -7 0 -20 -7 -27 -17 -13 -15 -12 -15
8 -2 40 24 39 -2 -1 -37 -27 -24 -42 -31 -47 -22 -5 8 -17 2 -38 -19 -25 -25
-33 -44 -42 -104 -20 -132 9 -237 86 -308 51 -47 137 -77 192 -66 33 6 34 8
27 38 -9 42 -19 48 -79 45 -54 -3 -115 24 -115 51 0 9 9 4 25 -13 41 -45 39
-29 -4 20 -45 52 -59 113 -45 206 4 29 7 59 5 66 -4 24 20 82 35 83 19 2 24 3
64 21 19 9 42 18 50 21 11 4 10 7 -7 12 -12 4 -25 16 -28 26 -6 19 -45 27 -45
9z"/>
<path d="M706 1248 c3 -4 1 -8 -4 -8 -6 0 -13 -16 -16 -35 -5 -26 -12 -35 -26
-35 -21 0 -24 -8 -14 -35 5 -13 9 -14 15 -3 7 11 11 10 19 -2 15 -23 12 -41
-9 -47 -11 -3 -22 -15 -26 -26 -9 -28 -9 -363 0 -377 4 -6 22 -10 40 -8 19 1
37 -1 41 -5 4 -4 53 -7 109 -7 l103 0 5 30 c4 16 4 37 1 45 -7 16 -44 21 -44
6 0 -12 -41 -11 -57 2 -7 4 -34 7 -60 6 -27 -1 -57 3 -68 9 -11 6 -14 12 -7
12 6 0 12 9 12 19 0 11 -6 22 -12 24 -10 4 -10 8 -1 14 6 4 14 29 18 55 l7 47
76 3 c82 3 91 10 78 61 -5 20 -12 22 -81 22 -74 0 -75 1 -89 30 -16 33 -11
115 7 127 7 4 7 11 -1 21 -12 14 -7 27 10 27 5 0 13 -11 18 -25 9 -24 12 -25
105 -25 l95 0 1 28 c3 60 -4 71 -33 53 -16 -10 -19 -10 -12 1 6 10 5 11 -7 1
-9 -8 -20 -9 -29 -3 -23 15 -90 12 -106 -5 -14 -14 -48 -10 -39 4 2 4 -2 8
-10 8 -8 0 -12 -4 -9 -9z"/>
<path d="M1050 1239 c0 -5 -4 -7 -10 -4 -6 4 -10 -12 -10 -39 0 -25 5 -46 10
-46 6 0 10 -5 10 -11 0 -5 -6 -7 -12 -3 -9 5 -9 2 1 -9 11 -14 11 -17 0 -17
-10 -1 -9 -4 3 -11 11 -6 15 -16 11 -26 -6 -15 -7 -14 -14 3 -4 10 -8 -41 -8
-114 -1 -73 3 -131 8 -128 11 7 21 -56 14 -84 -4 -16 -8 -18 -14 -8 -13 20
-10 -2 5 -47 8 -22 18 -38 23 -35 4 3 7 8 6 12 -2 4 9 11 23 14 17 4 23 11 20
21 -3 8 -6 20 -6 26 0 6 -6 2 -14 -9 -14 -18 -15 -18 -21 8 -8 31 0 62 14 54
23 -15 31 56 29 253 l-3 204 -32 3 c-19 2 -33 -1 -33 -7z"/>
<path d="M2000 1227 c-14 -12 -20 -18 -13 -13 9 6 18 5 23 0 11 -11 -56 -68
-70 -59 -19 12 -70 -38 -81 -78 -16 -59 -13 -195 5 -245 32 -89 103 -148 208
-171 35 -8 50 -6 88 10 58 26 112 77 105 100 -4 11 2 23 15 32 27 19 40 67 40
152 0 100 -13 134 -70 191 -27 27 -50 54 -50 61 0 6 -5 15 -12 19 -7 5 -8 3
-3 -7 8 -12 6 -12 -9 0 -9 8 -39 15 -66 15 -27 1 -52 5 -56 9 -12 12 -28 8
-54 -16z m197 -49 c7 -6 11 -26 8 -49 -2 -22 3 -58 11 -81 18 -51 18 -169 0
-211 -7 -18 -27 -45 -43 -60 -25 -23 -40 -29 -86 -30 -30 -1 -54 0 -51 2 6 6
-59 45 -72 43 -23 -4 -32 174 -14 282 10 65 15 74 45 79 25 5 55 16 79 29 14
7 21 6 27 -4 5 -7 17 -13 27 -14 15 -1 18 4 14 19 -4 16 -1 18 19 12 13 -4 29
-12 36 -17z m-197 -413 c7 -9 8 -15 2 -15 -5 0 -12 7 -16 15 -3 8 -4 15 -2 15
2 0 9 -7 16 -15z"/>
<path d="M1250 1218 c0 -8 -11 -20 -24 -26 -19 -8 -23 -16 -19 -33 6 -21 7
-21 19 -4 12 16 14 16 20 2 9 -24 0 -62 -14 -59 -6 1 -12 -7 -12 -19 0 -11 -4
-17 -10 -14 -7 5 -10 -59 -8 -202 l3 -208 25 -2 c53 -4 62 5 56 50 -3 23 -6
54 -6 70 0 15 -5 27 -11 27 -8 0 -7 6 3 18 19 21 26 226 9 237 -14 8 -14 68
-1 81 6 6 5 23 -4 46 -14 42 -26 59 -26 36z"/>
<path d="M1590 1217 c0 -8 -12 -18 -26 -21 -18 -5 -24 -12 -20 -22 3 -9 6 -21
6 -27 0 -6 6 -2 14 9 13 17 15 17 21 2 8 -21 3 -59 -9 -58 -4 1 -15 -11 -22
-26 -11 -21 -14 -70 -12 -223 l3 -196 25 -2 c53 -4 62 5 56 50 -3 23 -6 54 -6
70 0 15 -4 27 -10 27 -6 0 -5 9 3 23 20 31 22 191 3 242 -10 28 -11 45 -4 58
11 20 2 94 -13 103 -5 3 -9 -1 -9 -9z"/>
<path d="M1360 739 c0 -5 -8 -9 -17 -7 -10 1 -23 -1 -29 -5 -13 -8 -6 -57 8
-57 6 0 8 7 5 15 -4 8 -2 17 3 20 6 4 14 -5 20 -19 9 -25 14 -26 80 -26 l70 0
0 38 c0 45 -8 56 -27 40 -10 -8 -20 -8 -39 1 -31 14 -74 14 -74 0z"/>
<path d="M1700 739 c0 -5 -8 -9 -17 -7 -10 1 -23 -1 -29 -5 -13 -8 -6 -57 8
-57 6 0 8 7 5 15 -4 8 -2 17 4 20 5 4 14 -6 19 -22 10 -28 11 -28 80 -25 l70
4 0 37 c0 44 -8 55 -27 39 -10 -8 -20 -8 -39 1 -31 14 -74 14 -74 0z"/>
</g>
</svg>
