<?xml version="1.0" standalone="no"?>
<!DOCTYPE svg PUBLIC "-//W3C//DTD SVG 20010904//EN"
 "http://www.w3.org/TR/2001/REC-SVG-20010904/DTD/svg10.dtd">
<svg version="1.0" xmlns="http://www.w3.org/2000/svg"
 width="233.000000pt" height="112.000000pt" viewBox="0 0 233.000000 112.000000"
 preserveAspectRatio="xMidYMid meet">

<g transform="translate(0.000000,112.000000) scale(0.100000,-0.100000)"
fill="#000000" stroke="none">
<path d="M1282 945 c-32 -27 -73 -110 -97 -200 -23 -84 -31 -262 -15 -320 14
-52 58 -95 96 -95 65 0 154 69 154 121 0 38 -18 37 -56 -2 -36 -38 -69 -52
-93 -39 -35 18 -32 40 15 116 113 181 150 357 88 425 -23 26 -57 24 -92 -6z
m58 -102 c0 -63 -42 -197 -78 -255 l-22 -33 0 50 c0 57 31 204 54 258 24 59
46 49 46 -20z"/>
<path d="M1552 945 c-61 -51 -111 -205 -119 -367 -7 -128 6 -187 49 -223 47
-40 114 -27 174 32 l30 30 22 -33 c24 -37 84 -61 125 -50 38 9 84 53 99 91 8
25 18 35 34 35 11 0 35 5 53 11 25 9 31 16 31 40 0 29 -1 30 -51 27 -50 -3
-51 -2 -62 32 -13 39 -67 80 -104 80 -65 0 -124 -50 -143 -122 -7 -24 -26 -53
-52 -76 -49 -44 -73 -55 -98 -42 -34 18 -31 40 16 116 113 181 150 357 88 425
-23 26 -57 24 -92 -6z m58 -102 c0 -63 -42 -197 -78 -255 l-22 -33 0 50 c0 57
31 204 54 258 24 59 46 49 46 -20z m220 -292 c0 -15 9 -40 20 -54 25 -32 25
-48 0 -75 -24 -26 -43 -28 -64 -7 -34 34 -32 109 5 146 27 27 39 24 39 -10z"/>
<path d="M327 896 c-124 -45 -198 -162 -199 -315 0 -59 5 -87 20 -117 41 -79
106 -120 210 -130 71 -7 196 18 235 47 l29 21 26 -25 c67 -64 156 -61 246 8
l44 33 6 -28 c8 -41 47 -64 92 -56 49 10 114 76 114 116 0 39 -18 38 -56 -1
-71 -75 -90 -52 -66 83 16 94 13 118 -17 118 -32 0 -48 -26 -62 -100 -9 -54
-16 -70 -29 -70 -9 0 -27 -12 -41 -26 -47 -51 -114 -68 -161 -43 -19 10 -16
14 39 40 46 22 65 37 78 64 33 72 -13 142 -88 132 -72 -10 -121 -62 -133 -144
l-6 -43 -80 -25 c-126 -40 -214 -30 -267 31 -72 81 -39 276 58 341 37 25 109
31 129 11 7 -7 12 -38 12 -69 0 -43 4 -58 16 -63 43 -17 74 18 74 83 0 111
-103 169 -223 127z m449 -330 c8 -21 -13 -54 -46 -71 -40 -21 -43 -19 -36 17
11 56 67 92 82 54z"/>
<path d="M1015 802 c-32 -7 -45 -22 -45 -53 0 -56 90 -66 110 -13 17 44 -14
76 -65 66z"/>
</g>
</svg>
